<svg width="920" height="260" viewBox="0 0 920 260" xmlns="http://www.w3.org/2000/svg">
  <defs>
    <linearGradient id="bg" x1="0" y1="0" x2="1" y2="1">
      <stop offset="0%" stop-color="#e6f8fb"/>
      <stop offset="100%" stop-color="#fff3e5"/>
    </linearGradient>
  </defs>
  <rect x="0" y="0" width="920" height="260" rx="20" fill="url(#bg)" stroke="#d1e6ec"/>
  <rect x="40" y="85" width="180" height="90" rx="12" fill="#fff" stroke="#c5dce3"/>
  <text x="130" y="120" text-anchor="middle" font-family="Space Grotesk" font-size="16" fill="#173847">Attribution Backend</text>
  <text x="130" y="145" text-anchor="middle" font-family="IBM Plex Mono" font-size="12" fill="#2c5a66">toy / trak / cea / dda</text>

  <rect x="280" y="85" width="160" height="90" rx="12" fill="#fff" stroke="#c5dce3"/>
  <text x="360" y="120" text-anchor="middle" font-family="Space Grotesk" font-size="16" fill="#173847">Density Features</text>
  <text x="360" y="145" text-anchor="middle" font-family="IBM Plex Mono" font-size="12" fill="#2c5a66">H@K, top-share, gini</text>

  <rect x="500" y="85" width="150" height="90" rx="12" fill="#fff" stroke="#c5dce3"/>
  <text x="575" y="120" text-anchor="middle" font-family="Space Grotesk" font-size="16" fill="#173847">Detector</text>
  <text x="575" y="145" text-anchor="middle" font-family="IBM Plex Mono" font-size="12" fill="#2c5a66">threshold + logistic</text>

  <rect x="710" y="85" width="170" height="90" rx="12" fill="#fff" stroke="#c5dce3"/>
  <text x="795" y="120" text-anchor="middle" font-family="Space Grotesk" font-size="16" fill="#173847">Artifacts &amp; UI</text>
  <text x="795" y="145" text-anchor="middle" font-family="IBM Plex Mono" font-size="12" fill="#2c5a66">JSON / CSV / PNG / SVG</text>

  <line x1="220" y1="130" x2="280" y2="130" stroke="#2f6a7a" stroke-width="2" marker-end="url(#arrow)"/>
  <line x1="440" y1="130" x2="500" y2="130" stroke="#2f6a7a" stroke-width="2" marker-end="url(#arrow)"/>
  <line x1="650" y1="130" x2="710" y2="130" stroke="#2f6a7a" stroke-width="2" marker-end="url(#arrow)"/>

  <defs>
    <marker id="arrow" markerWidth="8" markerHeight="8" refX="6" refY="3" orient="auto">
      <polygon points="0 0, 6 3, 0 6" fill="#2f6a7a" />
    </marker>
  </defs>
</svg>
